{"title":"Behaving Badly 2014 720p BluRay DTS x264 PFA-FHxHD","uid":11609647,"size":4998609907,"categoryP":"video","categoryS":"hd___movies","magnet":"?xt=urn:btih:4227f0df2739d3718c7e20c2d9e8208bddd2d9cb&amp;dn=Behaving+Badly+2014+720p+BluRay+DTS+x264+PFA-FHxHD&amp;tr=udp%3A%2F%2Ftracker.openbittorrent.com%3A80&amp;tr=udp%3A%2F%2Fopen.demonii.com%3A1337&amp;tr=udp%3A%2F%2Ftracker.coppersurfer.tk%3A6969&amp;tr=udp%3A%2F%2Fexodus.desync.com%3A6969","seeders":0,"leechers":1,"uploader":"Alemao99","files":3,"time":1417394806,"description":"When the teenager Rick Stevens reads the note that his mother left him to attempt suicide, he does not know whether laugh or accompanies the paramedics bringing aid to it. In addition, Rick is in love with Nina and want to lose her virginity with her at any cost. And the opportunity seems to have come when teens make a trip to a rock concert. Only in Rick's way, not only are your alcoholic and suicidal mother and the dog, but also many obstacles.\n\nTitle in Brazil: All for Something About It\nOriginal Title: Behaving Badly\nProduction year: 2014\nLaunch year in Brazil: 2014\nGenre: Comedy\nTime: min\nDirection: 97 min\nIMDb: http://www.imdb.com/title/tt2314824/\n\nSize: 4.66 GB\nExtension Archive: .MKV\nVideo Quality: Blu-Ray\nVideo codec: H.264 / AVC\nAudio Codec: AC3 2.1 / DTS 5.1\nResolution: 1280 x 688\nAudio Language: Portuguese / English\nSubtitles: Portuguese\n\nSCREENS\ni.imgur.com/3uNZIUG.jpg\ni.imgur.com/bBzZEsF.jpg\n\n\n\nFile size                                : 4.66 GiB\nDuration                                 : 1h 36mn\nOverall bit rate                         : 6 890 Kbps\nEncoded date                             : UTC 2014-11-22 03:18:51\nWriting application                      : mkvmerge v6.4.1 ('Omega Point') built on Sep 16 2013 22:05:10\nWriting library                          : libebml v1.3.0 + libmatroska v1.4.1\n\nVideo\nID                                       : 1\nFormat                                   : AVC\nFormat/Info                              : Advanced Video Codec\nFormat profile                           : &lt;a class=&quot;__cf_email__&quot; href=&quot;/cdn-cgi/l/email-protection&quot; data-cfemail=&quot;93dbfaf4fbd3dfa7bda2&quot;&gt;[email&amp;#160;protected]&lt;/a&gt;&lt;script cf-hash='f9e31' type=&quot;text/javascript&quot;&gt;\n/* &lt;![CDATA[ */!function(){try{var t=&quot;currentScript&quot;in document?document.currentScript:function(){for(var t=document.getElementsByTagName(&quot;script&quot;),e=t.length;e--;)if(t[e].getAttribute(&quot;cf-hash&quot;))return t[e]}();if(t&amp;&amp;t.previousSibling){var e,r,n,i,c=t.previousSibling,a=c.getAttribute(&quot;data-cfemail&quot;);if(a){for(e=&quot;&quot;,r=parseInt(a.substr(0,2),16),n=2;a.length-n;n+=2)i=parseInt(a.substr(n,2),16)^r,e+=String.fromCharCode(i);e=document.createTextNode(e),c.parentNode.replaceChild(e,c)}}}catch(u){}}();/* ]]&gt; */&lt;/script&gt;\nFormat settings, CABAC                   : Yes\nFormat settings, ReFrames                : 5 frames\nCodec ID                                 : V_MPEG4/ISO/AVC\nDuration                                 : 1h 36mn\nBit rate                                 : 4 933 Kbps\nWidth                                    : 1 280 pixels\nHeight                                   : 688 pixels\nDisplay aspect ratio                     : 1.85:1\nFrame rate                               : 23.976 fps\nColor space                              : YUV\nChroma subsampling                       : 4:2:0\nBit depth                                : 8 bits\nScan type                                : Progressive\nBits/(Pixel*Frame)                       : 0.234\nStream size                              : 3.24 GiB (70%)\nWriting library                          : x264 core 142 r2431 ac76440\nEncoding settings                        : cabac=1 / ref=5 / deblock=1:0:0 / analyse=0x3:0x133 / me=umh / subme=8 / psy=1 / psy_rd=1.00:0.00 / mixed_ref=1 / me_range=16 / chroma_me=1 / trellis=1 / 8x8dct=1 / cqm=0 / deadzone=21,11 / fast_pskip=0 / chroma_qp_offset=-2 / threads=12 / lookahead_threads=2 / sliced_threads=0 / nr=0 / decimate=1 / interlaced=0 / bluray_compat=0 / constrained_intra=0 / bframes=3 / b_pyramid=2 / b_adapt=1 / b_bias=0 / direct=1 / weightb=1 / open_gop=0 / weightp=2 / keyint=250 / keyint_min=23 / scenecut=40 / intra_refresh=0 / rc_lookahead=40 / rc=2pass / mbtree=1 / bitrate=4933 / ratetol=1.0 / qcomp=0.60 / qpmin=0 / qpmax=69 / qpstep=4 / cplxblur=20.0 / qblur=0.5 / ip_ratio=1.40 / aq=1:1.00\nLanguage                                 : English\nDefault                                  : Yes\nForced                                   : No\n\nAudio #1\nID                                       : 2\nFormat                                   : AC-3\nFormat/Info                              : Audio Coding 3\nMode extension                           : CM (complete main)\nFormat settings, Endianness              : Big\nCodec ID                                 : A_AC3\nDuration                                 : 1h 36mn\nBit rate mode                            : Constant\nBit rate                                 : 448 Kbps\nChannel(s)                               : 2 channels\nChannel positions                        : Front: L R\nSampling rate                            : 48.0 KHz\nBit depth                                : 16 bits\nCompression mode                         : Lossy\nDelay relative to video                  : 2s 75ms\nStream size                              : 310 MiB (7%)\nTitle                                    : @FHxHD\nLanguage                                 : Portuguese\nDefault                                  : No\nForced                                   : No\n\nAudio #2\nID                                       : 3\nFormat                                   : DTS\nFormat/Info                              : Digital Theater Systems\nCodec ID                                 : A_DTS\nDuration                                 : 1h 36mn\nBit rate mode                            : Constant\nBit rate                                 : 1 510 Kbps\nChannel(s)                               : 6 channels\nChannel positions                        : Front: L C R, Side: L R, LFE\nSampling rate                            : 48.0 KHz\nBit depth                                : 24 bits\nCompression mode                         : Lossy\nStream size                              : 1.02 GiB (22%)\nDefault                                  : Yes\nForced                                   : No\n\n\nSEED PLEASE\n\nENJOY...\n\n\n================================================== ===\nW W W. H D - E L I T E. N E T (More download links)\n================================================== ===","torrent":{"xt":"urn:btih:4227f0df2739d3718c7e20c2d9e8208bddd2d9cb","amp;dn":"Behaving+Badly+2014+720p+BluRay+DTS+x264+PFA-FHxHD","amp;tr":["udp%3A%2F%2Ftracker.openbittorrent.com%3A80","udp%3A%2F%2Fopen.demonii.com%3A1337","udp%3A%2F%2Ftracker.coppersurfer.tk%3A6969","udp%3A%2F%2Fexodus.desync.com%3A6969"],"infoHash":"4227f0df2739d3718c7e20c2d9e8208bddd2d9cb","infoHashBuffer":{"type":"Buffer","data":[66,39,240,223,39,57,211,113,140,126,32,194,217,232,32,139,221,210,217,203]},"announce":[],"urlList":[]}}